<svg xmlns="http://www.w3.org/2000/svg" width="89.833" height="89.833" viewBox="0 0 89.833 89.833">
  <path id="icon-new-connections" d="M1426.032,6365a9.8,9.8,0,0,0-8.614,14.472l-16.054,16.053a12.987,12.987,0,0,0-16,0L1372.84,6383a6.451,6.451,0,0,0,.926-3.3,6.533,6.533,0,1,0-6.533,6.534,6.446,6.446,0,0,0,3.3-.928l12.526,12.525a12.984,12.984,0,0,0,0,16l-20.684,20.687a9.7,9.7,0,1,0,2.042,2.576l20.954-20.954a12.973,12.973,0,0,0,6.366,2.645v16.6a9.8,9.8,0,1,0,3.267,0v-16.6a12.974,12.974,0,0,0,6.367-2.645l12.526,12.526a6.444,6.444,0,0,0-.927,3.3,6.533,6.533,0,1,0,6.533-6.532,6.452,6.452,0,0,0-3.3.924l-12.526-12.524a12.985,12.985,0,0,0,0-16l15.786-15.786a9.793,9.793,0,1,0,6.571-17.048Zm-62.066,14.7a3.267,3.267,0,1,1,3.267,3.266A3.27,3.27,0,0,1,1363.966,6379.7Zm-8.167,68.6a6.533,6.533,0,1,1,6.533-6.533A6.54,6.54,0,0,1,1355.8,6448.3Zm44.1-3.265a6.533,6.533,0,1,1-6.533-6.534A6.539,6.539,0,0,1,1399.9,6445.031Zm-6.533-29.4a9.8,9.8,0,1,1,9.8-9.8A9.81,9.81,0,0,1,1393.366,6415.631Zm29.4,16.333a3.267,3.267,0,1,1-3.267-3.267A3.269,3.269,0,0,1,1422.766,6431.964Zm3.267-50.633a6.534,6.534,0,1,1,6.533-6.534A6.54,6.54,0,0,1,1426.032,6381.331Z" transform="translate(-1346 -6364.998)" fill="#89ba41"/>
</svg>
