<svg xmlns="http://www.w3.org/2000/svg" width="76.5" height="95.865" viewBox="0 0 76.5 95.865">
  <path id="icon-notification" d="M74.483,69.314a36.814,36.814,0,0,1-17.049-22.2L53.3,31.661a26.952,26.952,0,0,0-25.112-20L26.641,5.883A7.949,7.949,0,0,0,11.284,10l1.545,5.77A27.029,27.029,0,0,0,1.083,45.648L5.217,61.1a36.58,36.58,0,0,1,1.249,9.478A36.644,36.644,0,0,1,1.585,88.845a4.28,4.28,0,0,0,.305,4.827,4.333,4.333,0,0,0,4.58,1.563L29.33,89.112A11.115,11.115,0,0,0,50.587,83.42L73.447,77.3a4.342,4.342,0,0,0,3.216-4.236,4.293,4.293,0,0,0-2.18-3.747ZM14.831,5.556a4.775,4.775,0,0,1,8.745,1.15l1.343,5.019c-.151.013-.3.043-.45.059q-.751.076-1.491.193c-.262.041-.525.084-.786.134q-.826.158-1.633.359c-.12.03-.24.047-.358.079s-.193.064-.29.091q-.911.25-1.795.564c-.159.055-.308.113-.463.17q-.92.344-1.811.751c-.046.02-.095.036-.141.058L14.361,9.174a4.726,4.726,0,0,1,.47-3.619Zm32.646,78.7a7.954,7.954,0,0,1-15.05,4.028ZM72.609,74.23,5.641,92.165a1.146,1.146,0,0,1-1.232-.423,1.134,1.134,0,0,1-.079-1.3A39.83,39.83,0,0,0,9.646,70.581a39.618,39.618,0,0,0-1.359-10.3L4.153,44.825A23.868,23.868,0,0,1,15.418,17.893l.028-.012a23.764,23.764,0,0,1,4.188-1.8c.458-.151.9-.332,1.37-.455a24.22,24.22,0,0,1,4.912-.772c.351-.019.7-.04,1.053-.043h.245A23.816,23.816,0,0,1,50.221,32.489l4.134,15.458A40.019,40.019,0,0,0,72.894,72.069a1.113,1.113,0,0,1,.588.992,1.166,1.166,0,0,1-.873,1.167Zm0,0" transform="translate(-0.163 0.01)" fill="#89ba41"/>
</svg>
