<svg id="icon-quick-start" xmlns="http://www.w3.org/2000/svg" width="98.333" height="98.333" viewBox="0 0 98.333 98.333">
  <path id="Path_6" data-name="Path 6" d="M49.167,0a1.637,1.637,0,0,0-1.639,1.639V23.423a1.639,1.639,0,1,0,3.278,0V3.307A45.888,45.888,0,1,1,16.661,16.776a1.639,1.639,0,1,0-2.321-2.314A49.166,49.166,0,1,0,49.167,0Z" fill="#89ba41"/>
  <path id="Path_7" data-name="Path 7" d="M34.66,42.815A5.826,5.826,0,0,0,38.927,45.2c.152.013.3.018.456.018a5.84,5.84,0,0,0,3.43-10.566L21.6,19.31a1.64,1.64,0,0,0-2.29,2.29Zm6.228-5.507a2.563,2.563,0,1,1-3.576,3.584L27.949,27.95Z" transform="translate(12.139 12.14)" fill="#89ba41"/>
</svg>
