<svg xmlns="http://www.w3.org/2000/svg" width="98.224" height="98.333" viewBox="0 0 98.224 98.333">
  <g id="icon-free-updates" transform="translate(-0.036)">
    <path id="Path_8" data-name="Path 8" d="M33,3.073A44.264,44.264,0,0,1,64.505,16.124a44.729,44.729,0,0,1,4.21,58.153L62.193,80.8V67.6H59.12v16.9l1.536,1.536h16.9V82.969H64.371l6.594-6.6.141-.163a47.814,47.814,0,0,0-4.43-62.259A47.316,47.316,0,0,0,33,0Z" transform="translate(17.684)" fill="#89ba41"/>
    <path id="Path_9" data-name="Path 9" d="M11.9,19.765l6.522-6.524v13.2h3.073V9.536L19.955,8H3.054v3.073H16.24l-6.594,6.6-.141.163a47.816,47.816,0,0,0,4.43,62.259A47.316,47.316,0,0,0,47.611,94.042V90.969A44.264,44.264,0,0,1,16.106,77.918,44.731,44.731,0,0,1,11.9,19.765Z" transform="translate(0 4.292)" fill="#89ba41"/>
  </g>
</svg>
